HIERARCHY
ROOT Hips
{
	OFFSET -3.958830 18.904000 13.208200
	CHANNELS 6 Xposition Yposition Zposition Zrotation Yrotation Xrotation 
	JOINT LHipJoint
	{
		OFFSET 0.000000 0.000000 0.000000
		CHANNELS 3 Zrotation Yrotation Xrotation
		JOINT LeftUpLeg
		{
			OFFSET 1.800000 -1.400000 0.085000
			CHANNELS 3 Zrotation Yrotation Xrotation
			JOINT LeftLeg
			{
				OFFSET 2.215000 -6.000000 0.000000
				CHANNELS 3 Zrotation Yrotation Xrotation
				JOINT LeftFoot
				{
					OFFSET 2.500000 -6.900000 0.000000
					CHANNELS 3 Zrotation Yrotation Xrotation
					JOINT LeftToeBase
					{
						OFFSET 0.200000 -0.500000 1.950000
						CHANNELS 3 Zrotation Yrotation Xrotation
						End Site
						{
							OFFSET 0.000000 0.000000 0.000000
						}
					}
				}
			}
		}
	}
	JOINT RHipJoint
	{
		OFFSET 0.000000 0.000000 0.000000
		CHANNELS 3 Zrotation Yrotation Xrotation
		JOINT RightUpLeg
		{
			OFFSET -1.800000 -1.400000 0.085000
			CHANNELS 3 Zrotation Yrotation Xrotation
			JOINT RightLeg
			{
				OFFSET -2.215000 -6.000000 0.000000
				CHANNELS 3 Zrotation Yrotation Xrotation
				JOINT RightFoot
				{
					OFFSET -2.500000 -6.900000 0.000000
					CHANNELS 3 Zrotation Yrotation Xrotation
					JOINT RightToeBase
					{
						OFFSET -0.200000 -0.500000 1.950000
						CHANNELS 3 Zrotation Yrotation Xrotation
						End Site
						{
							OFFSET 0.000000 0.000000 0.000000
						}
					}
				}
			}
		}
	}
	JOINT LowerBack
	{
		OFFSET 0.000000 0.000000 0.000000
		CHANNELS 3 Zrotation Yrotation Xrotation
		JOINT Spine
		{
			OFFSET -0.087000 1.940000 -0.288900
			CHANNELS 3 Zrotation Yrotation Xrotation
			JOINT Spine1
			{
				OFFSET 0.000000 1.950000 0.060000
				CHANNELS 3 Zrotation Yrotation Xrotation
				JOINT Neck
				{
					OFFSET 0.000000 0.000000 0.000000
					CHANNELS 3 Zrotation Yrotation Xrotation
					JOINT Neck1
					{
						OFFSET 0.000000 1.600000 0.340000
						CHANNELS 3 Zrotation Yrotation Xrotation
						JOINT Head
						{
							OFFSET 0.000000 1.667000 -0.240000
							CHANNELS 3 Zrotation Yrotation Xrotation
							End Site
							{
								OFFSET 0.000000 0.000000 0.000000
							}
						}
					}
				}
				JOINT LeftShoulder
				{
					OFFSET 0.000000 0.000000 0.000000
					CHANNELS 3 Zrotation Yrotation Xrotation
					JOINT LeftArm
					{
						OFFSET 2.700000 1.550000 -0.730000
						CHANNELS 3 Zrotation Yrotation Xrotation
						JOINT LeftForeArm
						{
							OFFSET 5.450000 0.000000 0.000000
							CHANNELS 3 Zrotation Yrotation Xrotation
							JOINT LeftHand
							{
								OFFSET 3.450000 0.000000 0.000000
								CHANNELS 3 Zrotation Yrotation Xrotation
								JOINT LeftHandIndex1
								{
									OFFSET 0.750000 0.000000 0.000000
									CHANNELS 3 Zrotation Yrotation Xrotation
									End Site
									{
										OFFSET 0.000000 0.000000 0.000000
									}
								}
							}
						}
					}
				}
				JOINT RightShoulder
				{
					OFFSET 0.000000 0.000000 0.000000
					CHANNELS 3 Zrotation Yrotation Xrotation
					JOINT RightArm
					{
						OFFSET -2.700000 1.550000 -0.730000
						CHANNELS 3 Zrotation Yrotation Xrotation
						JOINT RightForeArm
						{
							OFFSET -5.450000 0.000000 0.000000
							CHANNELS 3 Zrotation Yrotation Xrotation
							JOINT RightHand
							{
								OFFSET -3.450000 0.000000 0.000000
								CHANNELS 3 Zrotation Yrotation Xrotation
								JOINT RightHandIndex1
								{
									OFFSET -0.750000 0.000000 0.000000
									CHANNELS 3 Zrotation Yrotation Xrotation
									End Site
									{
										OFFSET 0.000000 0.000000 0.000000
									}
								}
							}
						}
					}
				}
			}
		}
	}
}
MOTION
Frames: 4
Frame Time: 0.016667
1.117690 13.469810 -2.274310 -75.144005 29.996428 -33.305716 -16.103000 10.646875 5.873153 6.101667 -15.044170 -49.856119 -30.369915 9.005982 18.743648 0.182490 6.134839 2.258533 0.282840 0.087520 0.408990 18.082911 -6.824014 4.062004 20.310377 10.182006 -34.347731 -68.710141 -4.474231 -5.598197 -1.557539 -7.217860 1.646733 0.042250 0.060530 0.299570 -1.215489 -6.017710 -9.684898 -5.655727 7.699401 42.754356 16.251266 3.629169 16.034597 -1.776436 7.523822 -15.006008 10.929662 -3.253312 37.797122 3.931870 1.784960 -10.232510 -6.014266 -24.172375 8.388743 -23.604524 -18.212460 2.855375 11.520824 1.893086 -0.753725 -3.968555 2.940011 0.462730 0.001200 0.201330 0.005710 8.701485 20.960620 11.233733 28.848750 0.018733 -9.044833 -25.017107 17.392697 -4.950606 2.419260 -1.544498 -0.094690 0.018240 -0.044010 -0.134080 
1.110550 13.450030 -2.269780 -74.763850 30.199204 -33.034044 -16.093142 10.602361 5.889908 6.305019 -15.222115 -49.682427 -31.136359 8.987777 18.361545 0.174333 6.222207 2.244121 0.229550 0.048060 0.347320 18.094318 -6.849068 4.039349 19.646575 10.262827 -35.589406 -68.884951 -3.335704 -3.863105 -1.528435 -7.261402 1.654805 0.037080 0.119440 0.282020 -1.247195 -5.915332 -9.672837 -6.146305 7.632743 42.194603 15.949266 3.443722 16.025487 -1.872336 7.602614 -14.837756 11.096702 -3.290283 37.701402 4.134840 1.503690 -9.925530 -5.429161 -23.567287 8.248333 -24.075695 -18.015782 2.732477 11.796617 0.708966 -0.904435 -3.993402 2.885323 0.457120 0.036330 0.168450 0.003010 8.308916 20.261404 11.054363 29.778097 0.486054 -8.424133 -24.197210 16.221252 -4.508132 2.408145 -1.491917 -0.132460 0.068420 0.000930 -0.125780 
1.108450 13.399730 -2.254920 -74.878585 30.549256 -33.050614 -16.096204 10.586147 5.963129 6.846495 -15.674284 -49.725697 -31.687105 9.241251 18.956908 0.166839 6.451094 2.165093 0.156860 -0.067290 0.344460 18.089132 -6.916465 3.937631 18.316770 9.655552 -36.540209 -68.142889 -2.265678 -1.910609 -1.467687 -7.255260 1.636820 -0.007060 0.140340 0.291540 -1.215949 -5.869488 -9.628399 -6.423417 7.327436 41.032494 15.655751 3.226349 15.880436 -1.439271 8.026090 -14.857346 11.968056 -3.406292 37.151873 2.128640 2.089520 -8.732500 -5.026976 -22.929068 8.141649 -25.267686 -17.408628 2.079405 12.960259 -2.308225 -1.372504 -4.004624 2.878221 0.460750 0.070750 0.128270 -0.049090 7.015773 19.160452 11.282374 31.476680 -0.169063 -6.895778 -22.291463 11.568350 -3.034447 2.474688 -1.454798 -0.173770 0.060100 0.062670 -0.162880 
1.101310 13.356980 -2.272020 -75.589095 31.485921 -34.386046 -16.082205 10.620251 6.012124 6.547710 -16.667312 -49.232836 -31.708323 9.910155 21.187062 0.199037 6.750234 2.072609 0.148040 -0.108080 0.418000 18.092039 -6.972115 3.848722 16.368969 8.831457 -37.020395 -70.472935 -2.165267 -0.882897 -1.566720 -7.522195 1.544122 -0.034950 0.102010 0.294030 -1.203742 -5.972544 -9.596160 -5.914478 6.648154 42.434353 14.843445 2.834481 15.335610 -0.805659 8.140860 -14.743458 12.064590 -4.088086 35.181117 0.252760 2.261470 -11.981980 -4.502103 -22.251966 7.822552 -26.187179 -16.989956 0.984358 14.879757 -5.280111 -2.012023 -3.944661 2.834167 0.527410 0.038260 0.168580 -0.085980 5.118133 18.186251 11.592777 33.047902 -1.313803 -5.907649 -19.824356 8.087162 -1.723322 2.541164 -1.360779 -0.197990 0.082900 0.065270 -0.203870 
